<svg width="30" height="30" viewBox="0 0 30 30" fill="none" xmlns="http://www.w3.org/2000/svg">
<path d="M15 0C10.9914 0 7.22291 1.56027 4.38849 4.39336C-1.4628 10.2418 -1.4628 19.758 4.38831 25.6065C7.22273 28.4397 10.9914 30 15 30C19.0084 30 22.7771 28.4397 25.6115 25.6065C31.4628 19.758 31.4628 10.2418 25.6115 4.39336C22.7771 1.56027 19.0084 0 15 0ZM21.7528 21.7495C21.4863 22.0158 21.1373 22.149 20.7881 22.149C20.439 22.149 20.0898 22.0158 19.8235 21.7495L15 16.9285L10.1766 21.7496C9.91008 22.0159 9.56101 22.1491 9.21184 22.1491C8.86277 22.1491 8.51351 22.0159 8.2473 21.7496C7.71441 21.2172 7.71441 20.3537 8.2473 19.8212L13.0707 15L8.24721 10.1788C7.71432 9.64636 7.71432 8.78291 8.24721 8.25036C8.77991 7.71791 9.64377 7.71791 10.1766 8.25036L15 13.0715L19.8233 8.25036C20.356 7.71791 21.2198 7.71791 21.7526 8.25036C22.2855 8.78282 22.2855 9.64627 21.7526 10.1788L16.9294 15L21.7528 19.8211C22.2856 20.3536 22.2856 21.2171 21.7528 21.7495Z" fill="#3D3333"/>
</svg>
